# xmcd CD database file
#
# Track frame offsets:
#	150
#	12731
#	24925
#	36266
#	50106
#	64219
#	77275
#	89419
#	102481
#	116632
#	129350
#	142539
#	155958
#	167568
#	179079
#	194547
#
# Disc length: 2761 seconds
#
# Revision: 0
# Processed by: cddbd v1.5.2PL0 Copyright (c) Steve Scherf et al.
# Submitted via: CDex 1.95
#
DISCID=dd0ac710
DTITLE=Bill Monroe - RCA Country Legends  (2002)
DYEAR=2002
DGENRE=Country
TTITLE0=Bill Monroe - Mule Skinner Blues
TTITLE1=Bill Monroe - No Letter In The Mail
TTITLE2=Bill Monroe - Cruin' Holy Unto My Lord
TTITLE3=Bill Monroe - Six White Horses
TTITLE4=Bill Monroe - Dog House Blues
TTITLE5=Bill Monroe - I Wonder If You Feel The Way I Do
TTITLE6=Bill Monroe - Katy Hill
TTITLE7=Bill Monroe - Tennessee Blues
TTITLE8=Bill Monroe - Shake My Mother's Hand For Me
TTITLE9=Bill Monroe - Were You There
TTITLE10=Bill Monroe - Blue Yodel No. 7
TTITLE11=Bill Monroe - The Coupon Song
TTITLE12=Bill Monroe - Orange Blossom Special
TTITLE13=Bill Monroe - Honku Tonk Swing
TTITLE14=Bill Monroe - In The Pines
TTITLE15=Bill Monroe - Back Up And Push
EXTD=YEAR: 2002
EXTT0=
EXTT1=
EXTT2=
EXTT3=
EXTT4=
EXTT5=
EXTT6=
EXTT7=
EXTT8=
EXTT9=
EXTT10=
EXTT11=
EXTT12=
EXTT13=
EXTT14=
EXTT15=
PLAYORDER=
